<?xml version="1.0" standalone="no"?><!DOCTYPE svg PUBLIC "-//W3C//DTD SVG 1.1//EN" "http://www.w3.org/Graphics/SVG/1.1/DTD/svg11.dtd"><svg t="1611998151186" class="icon" viewBox="0 0 1024 1024" version="1.1" xmlns="http://www.w3.org/2000/svg" p-id="2995" data-darkreader-inline-fill="" xmlns:xlink="http://www.w3.org/1999/xlink" width="200" height="200"><defs><style type="text/css">[data-darkreader-inline-fill] { fill: var(--darkreader-inline-fill)  !important; }
* {  }
</style></defs><path d="M511.823 67c-208.215-0.153-388.629 144.437-434.067 347.878-45.438 203.44 56.28 411.195 244.73 499.847 188.45 88.653 413.113 34.439 540.528-130.437 8.397-14.92 4.693-33.74-8.73-44.355-13.423-10.615-32.567-9.863-45.119 1.77-116.842 150.752-328.252 189.361-490.73 89.622-162.48-99.738-224-305.889-142.805-478.522 81.195-172.632 279.108-256.47 459.4-194.604 180.293 61.865 285.234 249.623 243.593 435.828a34.8 34.8 0 0 0 8.073 35.292 34.7 34.7 0 0 0 35.034 8.973 34.756 34.756 0 0 0 24.01-27.075c26.5-115.522 5.789-236.857-57.529-337.01C824.893 174.054 724.222 103.391 608.596 77.94A428.763 428.763 0 0 0 511.823 67z" fill="#333333" p-id="2996" data-darkreader-inline-fill="" style="--darkreader-inline-fill:#262a2b;"></path><path d="M512 745m-43 0a43 43 0 1 0 86 0 43 43 0 1 0-86 0Z" fill="#1C9DFF" p-id="2997" data-darkreader-inline-fill="" style="--darkreader-inline-fill:#2da6ff;"></path><path d="M519.172 236c50.756 0 91.048 13.865 120.874 41.594C669.349 304.276 684 341.16 684 388.249c0 35.053-9.942 65.66-29.826 91.82-8.896 10.463-30.088 30.606-63.577 60.428-16.744 14.126-29.04 28.514-36.89 43.163-8.774 14.776-13.677 31.386-14.707 49.83v22.01c0 17.397-14.103 31.5-31.5 31.5-16.214 0-29.566-12.25-31.308-28h-0.19v-3.24c-0.002-0.086-0.002-0.173-0.002-0.26v-26c0-2.544 0.302-5.017 0.87-7.386 1.758-18.403 6.178-34.883 13.26-49.44 10.989-23.544 37.414-53.89 79.275-91.036 14.651-14.65 23.547-24.067 26.687-28.252 15.697-19.881 23.546-40.547 23.546-61.998 0-30.869-8.895-55.197-26.686-72.985-17.791-18.312-43.431-27.468-76.92-27.468-39.245 0-68.286 12.818-87.124 38.455-17.267 21.974-25.901 52.057-25.901 90.25H403V421c0 17.12-13.88 31-31 31-17.12 0-31-13.88-31-31v-11c0-1.609 0.123-3.189 0.359-4.732 2.477-48.731 17.794-87.889 45.95-117.472C418.705 253.266 462.659 236 519.172 236z" fill="#1C9DFF" p-id="2998" data-darkreader-inline-fill="" style="--darkreader-inline-fill:#006abb;"></path></svg>