<?xml version="1.0" standalone="no"?><!DOCTYPE svg PUBLIC "-//W3C//DTD SVG 1.1//EN" "http://www.w3.org/Graphics/SVG/1.1/DTD/svg11.dtd"><svg t="1611998160225" class="icon" viewBox="0 0 1024 1024" version="1.1" xmlns="http://www.w3.org/2000/svg" p-id="3142" data-darkreader-inline-fill="" xmlns:xlink="http://www.w3.org/1999/xlink" width="200" height="200"><defs><style type="text/css">[data-darkreader-inline-fill] { fill: var(--darkreader-inline-fill)  !important; }
* {  }
</style></defs><path d="M511.823 67c-208.215-0.153-388.629 144.437-434.067 347.878-45.438 203.44 56.28 411.195 244.73 499.847 188.45 88.653 413.113 34.439 540.528-130.437 8.397-14.92 4.693-33.74-8.73-44.355-13.423-10.615-32.567-9.863-45.119 1.77-116.842 150.752-328.252 189.361-490.73 89.622-162.48-99.738-224-305.889-142.805-478.522 81.195-172.632 279.108-256.47 459.4-194.604 180.293 61.865 285.234 249.623 243.593 435.828a34.8 34.8 0 0 0 8.073 35.292 34.7 34.7 0 0 0 35.034 8.973 34.756 34.756 0 0 0 24.01-27.075c26.5-115.522 5.789-236.857-57.529-337.01C824.893 174.054 724.222 103.391 608.596 77.94A428.763 428.763 0 0 0 511.823 67z" fill="#333333" p-id="3143" data-darkreader-inline-fill="" style="--darkreader-inline-fill:#262a2b;"></path><path d="M475 244m37.5 0l0 0q37.5 0 37.5 37.5l0 311q0 37.5-37.5 37.5l0 0q-37.5 0-37.5-37.5l0-311q0-37.5 37.5-37.5Z" fill="#1C9DFF" p-id="3144" data-darkreader-inline-fill="" style="--darkreader-inline-fill:#006abb;"></path><path d="M512 713m-48 0a48 48 0 1 0 96 0 48 48 0 1 0-96 0Z" fill="#1C9DFF" p-id="3145" data-darkreader-inline-fill="" style="--darkreader-inline-fill:#2da6ff;"></path></svg>