<?xml version="1.0" standalone="no"?><!DOCTYPE svg PUBLIC "-//W3C//DTD SVG 1.1//EN" "http://www.w3.org/Graphics/SVG/1.1/DTD/svg11.dtd"><svg t="1611998137893" class="icon" viewBox="0 0 1024 1024" version="1.1" xmlns="http://www.w3.org/2000/svg" p-id="2559" data-darkreader-inline-fill="" xmlns:xlink="http://www.w3.org/1999/xlink" width="200" height="200"><defs><style type="text/css">[data-darkreader-inline-fill] { fill: var(--darkreader-inline-fill)  !important; }
* {  }
</style></defs><path d="M918.347 541.798c18.586 0 33.653-15.074 33.653-33.668v-44.89c0-178.012-79.297-264.696-241.758-264.696H590.33a62.654 62.654 0 0 1-49.9-24.38l-38.68-51.469a131.504 131.504 0 0 0-104.053-50.697H313.37C153.231 71.998 72 164.49 72 347.145v330.097C72 846.741 177.213 952 347.024 952H676.59c169.424 0 275.024-105.26 275.024-274.758-1.852-17.306-16.449-30.43-33.846-30.43-17.397 0-31.994 13.124-33.846 30.43 0 133.51-73.495 207.423-207.332 207.423H346.637c-133.837 0-207.332-73.527-207.332-207.423V345.597c0-145.505 51.833-207.81 173.68-207.81h85.099a64.588 64.588 0 0 1 49.898 24.767l38.682 51.082a130.337 130.337 0 0 0 103.666 51.856h119.525c125.714 0 174.453 56.112 174.453 197.748v44.89c0 8.997 3.598 17.62 9.993 23.945a33.645 33.645 0 0 0 24.046 9.723z" fill="#333333" p-id="2560" data-darkreader-inline-fill="" style="--darkreader-inline-fill:#262a2b;"></path><path d="M140 560h544.5c18.502 0 33.5 14.998 33.5 33.5 0 18.502-14.998 33.5-33.5 33.5H140v-67z" fill="#1C9DFF" p-id="2561" data-darkreader-inline-fill="" style="--darkreader-inline-fill:#006abb;"></path></svg>