<?xml version="1.0" standalone="no"?><!DOCTYPE svg PUBLIC "-//W3C//DTD SVG 1.1//EN" "http://www.w3.org/Graphics/SVG/1.1/DTD/svg11.dtd"><svg t="1611998133685" class="icon" viewBox="0 0 1024 1024" version="1.1" xmlns="http://www.w3.org/2000/svg" p-id="2413" data-darkreader-inline-fill="" xmlns:xlink="http://www.w3.org/1999/xlink" width="200" height="200"><defs><style type="text/css">[data-darkreader-inline-fill] { fill: var(--darkreader-inline-fill)  !important; }
* {  }
</style></defs><path d="M661.855 123H361.806C236.843 123 162 198.567 162 325.658v372.684C162 825.09 236.843 901 361.806 901c14.246-1.593 25.028-13.802 25.028-28.338 0-14.536-10.782-26.744-25.028-28.337-95.5 0-143.928-49.12-143.928-145.983V325.658c0-96.864 48.428-145.983 143.928-145.983h300.049c95.5 0 143.59 49.12 143.59 145.983v372.684c0 96.864-48.09 145.983-143.59 145.983h-110.74c-14.246 1.593-25.028 13.801-25.028 28.337s10.782 26.745 25.028 28.338h111.079C787.496 901 862 825.09 862 698.342V325.658C861.661 198.91 786.819 123 661.855 123z" fill="#333333" p-id="2414" data-darkreader-inline-fill="" style="--darkreader-inline-fill:#262a2b;"></path><path d="M371.627 704.868h280.068c15.337 0 27.77-12.61 27.77-28.166 0-15.555-12.433-28.166-27.77-28.166H371.29c-15.337 0-27.77 12.61-27.77 28.166 0 15.556 12.433 28.166 27.77 28.166h0.338zM371.627 540.338h280.068c10.716 1.198 21.164-3.926 26.893-13.19 5.728-9.263 5.728-21.033 0-30.297-5.729-9.263-16.177-14.387-26.893-13.189H371.29c-14.245 1.593-25.028 13.802-25.028 28.338 0 14.536 10.783 26.745 25.028 28.338h0.338zM371.627 375.807h106.677c14.245-1.593 25.028-13.802 25.028-28.338 0-14.536-10.783-26.744-25.028-28.337H371.627c-14.245 1.593-25.027 13.801-25.027 28.337s10.782 26.745 25.027 28.338z" fill="#1C9DFF" p-id="2415" data-darkreader-inline-fill="" style="--darkreader-inline-fill:#006abb;"></path></svg>