<?xml version="1.0" standalone="no"?><!DOCTYPE svg PUBLIC "-//W3C//DTD SVG 1.1//EN" "http://www.w3.org/Graphics/SVG/1.1/DTD/svg11.dtd"><svg t="1611998792488" class="icon" viewBox="0 0 1024 1024" version="1.1" xmlns="http://www.w3.org/2000/svg" p-id="1110" data-darkreader-inline-fill="" xmlns:xlink="http://www.w3.org/1999/xlink" width="200" height="200"><defs><style type="text/css">[data-darkreader-inline-fill] { fill: var(--darkreader-inline-fill)  !important; }
* {  }
</style></defs><path d="M 224.16 319.488 c -105.952 0 -191.84 85.888 -191.84 191.84 s 85.888 191.84 191.84 191.84 c 104.02 -2.688 186.948 -87.784 186.948 -191.84 S 328.18 322.176 224.16 319.488 Z m 510.464 -254.976 a 191.968 191.968 0 1 0 0.128 383.936 c 106.02 -0.036 191.94 -86.012 191.904 -192.032 c -0.036 -106.02 -86.012 -191.94 -192.032 -191.904 Z m 1.152 511.936 c -105.908 0.072 -191.708 85.976 -191.648 191.88 c 0.06 105.908 85.956 191.72 191.86 191.672 c 105.908 -0.048 191.728 -85.932 191.692 -191.84 a 191.712 191.712 0 0 0 -191.904 -191.712 Z" fill="#868686" p-id="1111" data-darkreader-inline-fill="" style="--darkreader-inline-fill:#5c6468;"></path><path d="M 540.48 128.032 c 16.952 0 33.456 1.472 49.832 3.584 a 190.624 190.624 0 0 0 -47.208 124.8 c 0.024 84.448 55.244 158.956 136.036 183.54 c 80.788 24.584 168.152 -6.532 215.212 -76.648 a 381.248 381.248 0 0 1 29.872 148.468 c 0 52.644 -10.616 102.668 -29.808 148.28 a 191.84 191.84 0 0 0 -158.32 -82.84 a 190.88 190.88 0 0 0 -191.776 190.752 c 0 47.464 17.784 90.32 46.312 123.84 a 392.892 392.892 0 0 1 -50.152 3.648 a 383.68 383.68 0 0 1 -333.592 -194.016 c 5.76 0.64 11.32 1.728 17.272 1.728 c 104.02 -2.688 186.948 -87.784 186.948 -191.84 S 328.18 322.176 224.16 319.488 c -5.76 0 -11.196 1.216 -16.824 1.664 a 383.68 383.68 0 0 1 333.144 -193.12 Z m 0 -63.968 c -159.92 0 -308.772 86.36 -388.604 225.296 L 90.788 395.8 l 122.24 -10.872 c 3.072 -0.256 6.08 -0.64 9.084 -1.088 l 3.264 -0.384 c 69.404 0 126.784 57.38 126.784 127.936 c -0.104 70.628 -57.372 127.84 -128 127.872 l -2.688 -0.448 c -2.812 -0.384 -5.628 -0.768 -8.44 -1.024 l -123.012 -11.832 l 61.28 107.208 c 79.856 139.664 228.3 225.964 389.18 226.256 c 17.912 0 36.464 -1.28 58.34 -4.092 l 116.808 -15.1 l -76.188 -89.68 a 126.848 126.848 0 0 1 -31.088 -82.456 c 0 -69.98 57.316 -126.912 127.808 -126.912 c 42.22 0 81.752 20.6 105.612 55.204 l 66.4 96.336 l 45.224 -107.852 a 443.748 443.748 0 0 0 34.8 -173.032 a 444.576 444.576 0 0 0 -34.864 -173.288 l -46.056 -109.26 l -66.016 98.448 a 127.936 127.936 0 0 1 -234.188 -71.26 c 0 -38.252 17.272 -66.272 31.792 -83.032 l 77.464 -89.936 l -117.7 -15.292 a 435.432 435.432 0 0 0 -58.148 -4.156 Z" fill="#868686" p-id="1112" data-darkreader-inline-fill="" style="--darkreader-inline-fill:#5c6468;"></path></svg>